# xmcd CD database file
# Copyright (C) 1996 Ti Kan
#
# Track frame offsets:
#  183
#  15803
#  44670
#  63995
#  80363
#  97098
#  114095
#  132950
#  151085
#  166423
#  188710
#  206995
#  220715
#  244573
#
# Disc length: 3516 seconds
#
# Revision: 1
# Processed by: cddbd v1.4b41PL1 Copyright (c) Steve Scherf et al.
# Submitted via: CDWizzard Release:4.12
#
DISCID=b00dba0e
DTITLE=Commodores - All the Great Love Songs
DYEAR=1900
DGENRE=
TTITLE0=Sweet Love
TTITLE1=Just To Be Close To You
TTITLE2=Easy
TTITLE3=Three Times A Lady
TTITLE4=Say Yeah
TTITLE5=Still
TTITLE6=Lovin' You
TTITLE7=Sail On
TTITLE8=Old-Fashion Love
TTITLE9=Jesus Is Love
TTITLE10=Lady (You Bring Me Up)
TTITLE11=Oh No
TTITLE12=This Love
TTITLE13=Lucy
EXTD=
EXTT0=Commodores
EXTT1=Commodores
EXTT2=Commodores
EXTT3=Commodores
EXTT4=Commodores
EXTT5=Commodores
EXTT6=Commodores
EXTT7=Commodores
EXTT8=Commodores
EXTT9=Commodores
EXTT10=Commodores
EXTT11=Commodores
EXTT12=Commodores
EXTT13=Commodores
PLAYORDER=
